<!--?xml version="1.0" encoding="utf-8"?-->
<!-- Generator: Adobe Illustrator 15.1.0, SVG Export Plug-In . SVG Version: 6.00 Build 0)  -->

<svg version="1.1" id="_x32_" xmlns="http://www.w3.org/2000/svg" xmlns:xlink="http://www.w3.org/1999/xlink" x="0px" y="0px" width="512px" height="512px" viewBox="0 0 512 512" style="width: 256px; height: 256px; opacity: 1;" xml:space="preserve">
<style type="text/css">

	.st0{fill:#4B4B4B;}

</style>
<g>
	<path class="st0" d="M362.969,196.938c0-9-7.281-16.25-16.25-16.25c-8.984,0-16.266,7.25-16.266,16.25
		c0,4.375,1.766,8.344,4.578,11.281c-11.063,22.875-32.172,30.875-48.563,23.625c-14.563-6.438-19.953-24.875-21.781-39.156
		c5.938-3.125,10-9.375,10-16.547c0-10.328-8.359-18.703-18.688-18.703c-10.313,0-18.688,8.375-18.688,18.703
		c0,7.172,4.063,13.422,10,16.547c-1.813,14.281-7.203,32.719-21.781,39.156c-16.375,7.25-37.5-0.75-48.563-23.625
		c2.828-2.938,4.578-6.906,4.578-11.281c0-9-7.281-16.25-16.266-16.25c-8.969,0-16.25,7.25-16.25,16.25
		c0,8.25,6.172,15.063,14.156,16.094l11.313,68.563h163l11.313-68.563C356.813,212,362.969,205.188,362.969,196.938z" style="fill: rgb(0, 148, 255);"></path>
	<path class="st0" d="M339.156,310.813c0,6.688-5.422,12.094-12.094,12.094H184.953c-6.688,0-12.109-5.406-12.109-12.094v-1
		c0-6.688,5.422-12.094,12.109-12.094h142.109c6.672,0,12.094,5.406,12.094,12.094V310.813z" style="fill: rgb(0, 148, 255);"></path>
	<path class="st0" d="M361.313,458.578c-49.359-28.125-125.922-47.156-134.719-48.266c-27.625-3.422-53.031-13.344-74.906-28.047
		c6.984-6.453,11.469-16.828,11.281-28.563c-0.25-15.094-8.125-27.797-18.891-32.5c-10.609,5.047-18.063,18.016-17.813,33.109
		c0.047,2.781,0.422,5.438,0.953,8.031c-16.734-16.344-30.078-36-39.156-57.813c11.203-1.547,22.297-10,28.266-23
		c6.641-14.453,4.938-30.094-3.172-39.469c-12.359,0-25.328,8.906-31.953,23.344c-1.234,2.688-2.078,5.406-2.75,8.125
		c-2.406-11.5-3.781-23.344-3.781-35.484c0-18.125,4.188-37.719,11.297-56.875c9.328,5.297,22.531,5.484,34.625-0.547
		c13.75-6.875,21.938-19.656,21.516-31.609c-9.297-7.516-24.453-8.656-38.172-1.797c-1.078,0.531-2.047,1.156-3.063,1.766
		c10.797-19.359,24.125-36.922,38.469-50.422c15.219-11.125,30.094-7.344,42.156-17.109c17.5-14.156,28.313-40.875,23.938-57.859
		c-21.953,4-40.359,2.797-57.859,16.969c-11.813,9.563-13.953,25.938-24.828,36.625c-12.969,9.906-24.438,21.25-34.344,33.563
		c0.156-1.391,0.328-2.797,0.359-4.25c0.375-17.031-7.969-31.688-19.922-37.438c-12.172,5.25-21.125,19.531-21.469,36.563
		c-0.375,17,7.922,31.625,19.844,37.406c-12.984,24.344-20.891,50.672-23.469,76.531c-1.063-2.25-2.25-4.5-3.719-6.656
		C30.922,199.656,16.469,193,4.125,195.172c-6.438,10.734-5.438,26.609,3.672,39.859c9,13.141,23.266,19.75,35.547,17.781
		c1.969,27.563,9.406,53.75,21.313,77.438c-3.094-1.719-6.453-3.125-10.078-4.109c-15.531-4.234-30.875,0.063-38.906,9.703
		c2.047,12.375,13.078,23.844,28.625,28.063c14.047,3.844,27.859,0.656,36.344-7.109c13.797,19.484,30.922,36.484,50.609,50.188
		c-2.5,0.172-5.031,0.516-7.594,1.172c-14.141,3.703-24.281,14.031-26.219,25.25c7.203,8.813,21.063,12.844,35.219,9.125
		c11.938-3.125,20.969-11,24.672-20.125c20.047,9.906,41.953,16.688,65.188,19.563c8.828,1.375,79.547,19.594,122.984,44.344
		c2.5,1.406,5.219,2.094,7.891,2.094c5.547,0,10.938-2.906,13.875-8.063C371.625,472.688,368.969,462.938,361.313,458.578z" style="fill: rgb(0, 148, 255);"></path>
	<path class="st0" d="M150.688,458.578c49.359-28.125,125.922-47.156,134.719-48.266c27.625-3.422,53.031-13.344,74.906-28.047
		c-6.984-6.453-11.469-16.828-11.281-28.563c0.25-15.094,8.125-27.797,18.891-32.5c10.609,5.047,18.063,18.016,17.813,33.109
		c-0.047,2.781-0.422,5.438-0.953,8.031c16.734-16.344,30.078-36,39.156-57.813c-11.203-1.547-22.297-10-28.266-23
		c-6.641-14.453-4.938-30.094,3.172-39.469c12.359,0,25.328,8.906,31.953,23.344c1.234,2.688,2.078,5.406,2.75,8.125
		c2.406-11.5,3.781-23.344,3.781-35.484c0-18.125-4.188-37.719-11.297-56.875c-9.328,5.297-22.531,5.484-34.625-0.547
		c-13.75-6.875-21.938-19.656-21.516-31.609c9.297-7.516,24.453-8.656,38.172-1.797c1.078,0.531,2.047,1.156,3.063,1.766
		c-10.797-19.359-24.125-36.922-38.469-50.422c-15.219-11.125-30.094-7.344-42.156-17.109c-17.5-14.156-28.313-40.875-23.938-57.859
		c21.953,4,40.359,2.797,57.859,16.969c11.813,9.563,13.953,25.938,24.828,36.625c12.969,9.906,24.438,21.25,34.344,33.563
		c-0.156-1.391-0.328-2.797-0.359-4.25c-0.375-17.031,7.969-31.688,19.922-37.438c12.172,5.25,21.125,19.531,21.469,36.563
		c0.375,17-7.922,31.625-19.844,37.406c12.984,24.344,20.891,50.672,23.469,76.531c1.063-2.25,2.25-4.5,3.719-6.656
		c9.109-13.25,23.563-19.906,35.906-17.734c6.438,10.734,5.438,26.609-3.672,39.859c-9,13.141-23.266,19.75-35.547,17.781
		c-1.969,27.563-9.406,53.75-21.313,77.438c3.094-1.719,6.453-3.125,10.078-4.109c15.531-4.234,30.875,0.063,38.906,9.703
		c-2.047,12.375-13.078,23.844-28.625,28.063c-14.047,3.844-27.859,0.656-36.344-7.109c-13.797,19.484-30.922,36.484-50.609,50.188
		c2.5,0.172,5.031,0.516,7.594,1.172c14.141,3.703,24.281,14.031,26.219,25.25c-7.203,8.813-21.063,12.844-35.219,9.125
		c-11.938-3.125-20.969-11-24.672-20.125c-20.047,9.906-41.953,16.688-65.188,19.563c-8.828,1.375-79.547,19.594-122.984,44.344
		c-2.5,1.406-5.219,2.094-7.891,2.094c-5.547,0-10.938-2.906-13.875-8.063C140.375,472.688,143.031,462.938,150.688,458.578z" style="fill: rgb(0, 148, 255);"></path>
</g>
</svg>
